<svg width="20" height="20" viewBox="0 0 20 20" fill="none" xmlns="http://www.w3.org/2000/svg">
<g clip-path="url(#clip0_1_6)">
<path d="M10 20C15.5228 20 20 15.5228 20 10C20 4.47715 15.5228 0 10 0C4.47715 0 0 4.47715 0 10C0 15.5228 4.47715 20 10 20Z" fill="#F1F1F1"/>
<path d="M13.6405 13.1099C13.6754 13.1447 13.703 13.1861 13.7219 13.2316C13.7407 13.2771 13.7504 13.3259 13.7504 13.3752C13.7504 13.4245 13.7407 13.4733 13.7219 13.5188C13.703 13.5643 13.6754 13.6057 13.6405 13.6405C13.6057 13.6754 13.5643 13.703 13.5188 13.7219C13.4733 13.7407 13.4245 13.7504 13.3752 13.7504C13.3259 13.7504 13.2771 13.7407 13.2316 13.7219C13.1861 13.703 13.1447 13.6754 13.1099 13.6405L10.0002 10.5304L6.89052 13.6405C6.82016 13.7109 6.72472 13.7504 6.62521 13.7504C6.5257 13.7504 6.43026 13.7109 6.3599 13.6405C6.28953 13.5702 6.25 13.4747 6.25 13.3752C6.25 13.2757 6.28953 13.1803 6.3599 13.1099L9.47005 10.0002L6.3599 6.89052C6.28953 6.82016 6.25 6.72472 6.25 6.62521C6.25 6.5257 6.28953 6.43026 6.3599 6.3599C6.43026 6.28953 6.5257 6.25 6.62521 6.25C6.72472 6.25 6.82016 6.28953 6.89052 6.3599L10.0002 9.47005L13.1099 6.3599C13.1803 6.28953 13.2757 6.25 13.3752 6.25C13.4747 6.25 13.5702 6.28953 13.6405 6.3599C13.7109 6.43026 13.7504 6.5257 13.7504 6.62521C13.7504 6.72472 13.7109 6.82016 13.6405 6.89052L10.5304 10.0002L13.6405 13.1099Z" fill="#848484"/>
</g>
<defs>
<clipPath id="clip0_1_6">
<rect width="20" height="20" fill="white"/>
</clipPath>
</defs>
</svg>
