<svg width="24" height="25" viewBox="0 0 24 25" fill="none" xmlns="http://www.w3.org/2000/svg">
<path d="M12.0003 3.75977C17.3924 3.75977 21.8784 7.63953 22.8189 12.7598C21.8784 17.88 17.3924 21.7598 12.0003 21.7598C6.60812 21.7598 2.12215 17.88 1.18164 12.7598C2.12215 7.63953 6.60812 3.75977 12.0003 3.75977ZM12.0003 19.7598C16.2359 19.7598 19.8603 16.8118 20.7777 12.7598C19.8603 8.7078 16.2359 5.75977 12.0003 5.75977C7.7646 5.75977 4.14022 8.7078 3.22278 12.7598C4.14022 16.8118 7.7646 19.7598 12.0003 19.7598ZM12.0003 17.2598C9.51498 17.2598 7.50026 15.2451 7.50026 12.7598C7.50026 10.2745 9.51498 8.25977 12.0003 8.25977C14.4855 8.25977 16.5003 10.2745 16.5003 12.7598C16.5003 15.2451 14.4855 17.2598 12.0003 17.2598ZM12.0003 15.2598C13.381 15.2598 14.5003 14.1405 14.5003 12.7598C14.5003 11.3791 13.381 10.2598 12.0003 10.2598C10.6196 10.2598 9.50026 11.3791 9.50026 12.7598C9.50026 14.1405 10.6196 15.2598 12.0003 15.2598Z" fill="black"/>
</svg>
