<svg width="20" height="20" viewBox="0 0 20 20" fill="none" xmlns="http://www.w3.org/2000/svg">
<path d="M17.5 9.02699V16.2496C17.5 16.5812 17.3683 16.8991 17.1339 17.1335C16.8995 17.368 16.5815 17.4996 16.25 17.4996H13.125C12.7935 17.4996 12.4755 17.368 12.2411 17.1335C12.0067 16.8991 11.875 16.5812 11.875 16.2496V13.1246C11.875 12.9589 11.8092 12.7999 11.6919 12.6827C11.5747 12.5655 11.4158 12.4996 11.25 12.4996H8.75C8.58424 12.4996 8.42527 12.5655 8.30806 12.6827C8.19085 12.7999 8.125 12.9589 8.125 13.1246V16.2496C8.125 16.5812 7.9933 16.8991 7.75888 17.1335C7.52446 17.368 7.20652 17.4996 6.875 17.4996H3.75C3.41848 17.4996 3.10054 17.368 2.86612 17.1335C2.6317 16.8991 2.5 16.5812 2.5 16.2496V9.02699C2.49997 8.85399 2.53586 8.68287 2.60538 8.52445C2.67491 8.36604 2.77656 8.22378 2.90391 8.10668L9.15391 2.2098L9.1625 2.20121C9.39261 1.99194 9.69248 1.87598 10.0035 1.87598C10.3146 1.87598 10.6144 1.99194 10.8445 2.20121C10.8472 2.20427 10.8501 2.20714 10.8531 2.2098L17.1031 8.10668C17.2292 8.2244 17.3295 8.36693 17.3978 8.52532C17.4661 8.6837 17.5009 8.85451 17.5 9.02699Z" fill="#383838"/>
</svg>
