<svg width="310" height="310" viewBox="0 0 310 310" fill="none" xmlns="http://www.w3.org/2000/svg">
<circle cx="155" cy="155" r="155" fill="#F4FFF4"/>
<circle cx="155" cy="155" r="143" fill="#E3FFE3"/>
<circle cx="155" cy="155" r="131" fill="#BFFFBF"/>
<circle cx="155" cy="155" r="118" fill="#8FE98F"/>
<path d="M155 51C134.431 51 114.323 57.0995 97.2207 68.5272C80.118 79.9548 66.7881 96.1974 58.9166 115.201C51.0451 134.204 48.9855 155.115 52.9984 175.289C57.0112 195.463 66.9163 213.994 81.4609 228.539C96.0056 243.084 114.537 252.989 134.711 257.002C154.885 261.015 175.796 258.955 194.799 251.083C213.803 243.212 230.045 229.882 241.473 212.779C252.901 195.677 259 175.569 259 155C258.971 127.426 248.004 100.991 228.507 81.4931C209.01 61.9956 182.574 51.0291 155 51ZM200.66 136.66L144.66 192.66C143.917 193.404 143.035 193.994 142.064 194.396C141.092 194.799 140.051 195.006 139 195.006C137.949 195.006 136.908 194.799 135.937 194.396C134.965 193.994 134.083 193.404 133.34 192.66L109.34 168.66C107.839 167.159 106.996 165.123 106.996 163C106.996 160.877 107.839 158.841 109.34 157.34C110.841 155.839 112.877 154.996 115 154.996C117.123 154.996 119.159 155.839 120.66 157.34L139 175.69L189.34 125.34C190.083 124.597 190.966 124.007 191.937 123.605C192.908 123.203 193.949 122.996 195 122.996C196.051 122.996 197.092 123.203 198.063 123.605C199.034 124.007 199.917 124.597 200.66 125.34C201.403 126.083 201.993 126.966 202.395 127.937C202.797 128.908 203.004 129.949 203.004 131C203.004 132.051 202.797 133.092 202.395 134.063C201.993 135.034 201.403 135.917 200.66 136.66Z" fill="#55B955"/>
</svg>
