<svg width="25" height="24" viewBox="0 0 25 24" fill="none" xmlns="http://www.w3.org/2000/svg">
<path d="M23.7504 11.9998C23.7551 13.7859 23.1757 15.5245 22.1004 16.9507C22.0412 17.0295 21.967 17.0958 21.8822 17.146C21.7973 17.1961 21.7034 17.229 21.6058 17.2429C21.5082 17.2567 21.4089 17.2512 21.3134 17.2266C21.2179 17.2021 21.1283 17.159 21.0495 17.0998C20.9707 17.0405 20.9043 16.9664 20.8542 16.8815C20.804 16.7967 20.7711 16.7027 20.7573 16.6052C20.7434 16.5076 20.749 16.4082 20.7735 16.3127C20.7981 16.2173 20.8412 16.1276 20.9004 16.0488C21.7806 14.8828 22.2547 13.4607 22.2504 11.9998C22.2504 10.2095 21.5392 8.49265 20.2734 7.22678C19.0075 5.96091 17.2906 5.24975 15.5004 5.24975C13.7102 5.24975 11.9933 5.96091 10.7274 7.22678C9.46156 8.49265 8.7504 10.2095 8.7504 11.9998C8.7504 12.1987 8.67138 12.3894 8.53073 12.5301C8.39008 12.6707 8.19931 12.7498 8.0004 12.7498C7.80149 12.7498 7.61072 12.6707 7.47007 12.5301C7.32942 12.3894 7.2504 12.1987 7.2504 11.9998C7.25003 11.2429 7.35382 10.4896 7.55884 9.761C7.45665 9.74975 7.35353 9.74975 7.2504 9.74975C6.05693 9.74975 4.91234 10.2239 4.06842 11.0678C3.22451 11.9117 2.7504 13.0563 2.7504 14.2498C2.7504 15.4432 3.22451 16.5878 4.06842 17.4317C4.91234 18.2756 6.05693 18.7498 7.2504 18.7498H9.5004C9.69931 18.7498 9.89008 18.8288 10.0307 18.9694C10.1714 19.1101 10.2504 19.3008 10.2504 19.4998C10.2504 19.6987 10.1714 19.8894 10.0307 20.0301C9.89008 20.1707 9.69931 20.2498 9.5004 20.2498H7.2504C6.42557 20.2499 5.60955 20.0801 4.85332 19.7507C4.09709 19.4214 3.41688 18.9396 2.85519 18.3356C2.2935 17.7316 1.86238 17.0182 1.58876 16.2401C1.31515 15.462 1.20491 14.6358 1.26493 13.8131C1.32496 12.9905 1.55396 12.189 1.93763 11.4589C2.3213 10.7287 2.8514 10.0855 3.49483 9.56937C4.13825 9.05327 4.88118 8.67538 5.67721 8.4593C6.47323 8.24321 7.30527 8.19358 8.12134 8.3135C8.95234 6.65146 10.3201 5.31863 12.0031 4.53091C13.6861 3.74318 15.5857 3.54669 17.3943 3.97326C19.2029 4.39983 20.8145 5.42448 21.9681 6.88124C23.1217 8.338 23.7497 10.1415 23.7504 11.9998ZM15.281 11.4691C15.2114 11.3994 15.1287 11.3441 15.0376 11.3063C14.9466 11.2686 14.849 11.2492 14.7504 11.2492C14.6518 11.2492 14.5542 11.2686 14.4632 11.3063C14.3721 11.3441 14.2894 11.3994 14.2198 11.4691L11.2198 14.4691C11.1501 14.5388 11.0948 14.6215 11.0571 14.7126C11.0194 14.8036 11 14.9012 11 14.9998C11 15.0983 11.0194 15.1959 11.0571 15.2869C11.0948 15.378 11.1501 15.4607 11.2198 15.5304C11.3605 15.6711 11.5514 15.7502 11.7504 15.7502C11.8489 15.7502 11.9465 15.7308 12.0376 15.693C12.1286 15.6553 12.2113 15.6001 12.281 15.5304L14.0004 13.8101V19.4998C14.0004 19.6987 14.0794 19.8894 14.2201 20.0301C14.3607 20.1707 14.5515 20.2498 14.7504 20.2498C14.9493 20.2498 15.1401 20.1707 15.2807 20.0301C15.4214 19.8894 15.5004 19.6987 15.5004 19.4998V13.8101L17.2198 15.5304C17.2895 15.6001 17.3722 15.6553 17.4632 15.693C17.5543 15.7308 17.6519 15.7502 17.7504 15.7502C17.8489 15.7502 17.9465 15.7308 18.0376 15.693C18.1286 15.6553 18.2113 15.6001 18.281 15.5304C18.3507 15.4607 18.406 15.378 18.4437 15.2869C18.4814 15.1959 18.5008 15.0983 18.5008 14.9998C18.5008 14.9012 18.4814 14.8036 18.4437 14.7126C18.406 14.6215 18.3507 14.5388 18.281 14.4691L15.281 11.4691Z" fill="black"/>
</svg>
