<svg width="186" height="44" viewBox="0 0 186 44" fill="none" xmlns="http://www.w3.org/2000/svg">
<line y1="21.5" x2="50" y2="21.5" stroke="black" stroke-dasharray="4 4"/>
<path d="M94.6396 32.0306C94.8972 32.2884 95.042 32.638 95.042 33.0025C95.042 33.367 94.8972 33.7166 94.6396 33.9745L92.9311 35.6932C91.1244 37.4988 88.6744 38.5127 86.1201 38.5119C83.5658 38.5111 81.1165 37.4956 79.3109 35.6889C77.5053 33.8822 76.4914 31.4322 76.4922 28.8779C76.493 26.3236 77.5085 23.8743 79.3152 22.0687L83.4608 17.9231C85.1962 16.1863 87.5297 15.1783 89.9838 15.1055C92.438 15.0326 94.8272 15.9004 96.6625 17.5312C96.7979 17.6513 96.9084 17.7968 96.9876 17.9596C97.0667 18.1224 97.1131 18.2991 97.1239 18.4798C97.1348 18.6605 97.1099 18.8415 97.0508 19.0126C96.9917 19.1836 96.8995 19.3414 96.7794 19.4768C96.6593 19.6122 96.5137 19.7227 96.351 19.8019C96.1882 19.881 96.0115 19.9274 95.8308 19.9382C95.6501 19.9491 95.4691 19.9242 95.298 19.8651C95.1269 19.806 94.9692 19.7138 94.8338 19.5937C93.5229 18.4296 91.8169 17.8102 90.0645 17.8623C88.3121 17.9144 86.6459 18.634 85.4064 19.8738L81.2608 24.0143C79.9712 25.3039 79.2468 27.0529 79.2468 28.8767C79.2468 30.7004 79.9712 32.4494 81.2608 33.739C82.5504 35.0286 84.2994 35.753 86.1231 35.753C87.9469 35.753 89.6959 35.0286 90.9855 33.739L92.6939 32.0306C92.8216 31.9027 92.9733 31.8013 93.1402 31.7321C93.3071 31.6629 93.486 31.6273 93.6667 31.6273C93.8474 31.6273 94.0264 31.6629 94.1933 31.7321C94.3602 31.8013 94.5119 31.9027 94.6396 32.0306ZM106.685 8.31181C104.878 6.50888 102.429 5.49634 99.8766 5.49634C97.324 5.49634 94.8756 6.50888 93.0686 8.31181L91.3602 10.022C91.1024 10.28 90.9577 10.6298 90.9578 10.9945C90.958 11.3592 91.103 11.709 91.361 11.9667C91.619 12.2245 91.9689 12.3692 92.3336 12.3691C92.6983 12.3689 93.048 12.2239 93.3058 11.9659L95.0142 10.2574C96.3038 8.96787 98.0529 8.24339 99.8766 8.24339C101.7 8.24339 103.449 8.96787 104.739 10.2574C106.029 11.547 106.753 13.2961 106.753 15.1198C106.753 16.9435 106.029 18.6926 104.739 19.9821L100.593 24.1312C99.3532 25.3704 97.6866 26.089 95.9342 26.1401C94.1819 26.1912 92.4762 25.571 91.166 24.4062C91.0305 24.2861 90.8728 24.1939 90.7017 24.1348C90.5306 24.0757 90.3496 24.0508 90.1689 24.0617C89.8041 24.0836 89.4628 24.2496 89.2203 24.5231C89.1003 24.6585 89.008 24.8162 88.9489 24.9873C88.8898 25.1584 88.865 25.3394 88.8758 25.5201C88.8977 25.885 89.0637 26.2262 89.3372 26.4687C91.1721 28.0999 93.5611 28.9683 96.0152 28.8961C98.4693 28.8239 100.803 27.8166 102.539 26.0803L106.685 21.9346C108.489 20.1275 109.502 17.6784 109.502 15.1249C109.502 12.5715 108.489 10.1224 106.685 8.31525V8.31181Z" fill="black"/>
<line x1="136" y1="21.5" x2="186" y2="21.5" stroke="black" stroke-dasharray="4 4"/>
</svg>
