<svg xmlns="http://www.w3.org/2000/svg" width="16" height="18" viewBox="0 0 16 18" fill="none">
<path d="M5.52686 6.50781H6.77366V13.9886H5.52686V6.50781Z" fill="#ea5252"/>
<path d="M9.26807 6.50781H10.5149V13.9886H9.26807V6.50781Z" fill="#ea5252"/>
<path d="M0.538086 2.7666V4.0134H1.78489V16.4814C1.78489 16.8121 1.91625 17.1292 2.15007 17.363C2.38389 17.5969 2.70102 17.7282 3.03169 17.7282H13.0061C13.3368 17.7282 13.6539 17.5969 13.8877 17.363C14.1216 17.1292 14.2529 16.8121 14.2529 16.4814V4.0134H15.4997V2.7666H0.538086ZM3.03169 16.4859V4.01786H13.0061V16.4859H3.03169Z" fill="#ea5252"/>
<path d="M5.52686 0.272461H10.5141V1.51926H5.52686V0.272461Z" fill="#ea5252"/>
</svg>