<svg width="20" height="23" viewBox="0 0 20 23" fill="none" xmlns="http://www.w3.org/2000/svg">
<path d="M0.800781 22.4395V9.46621H3.95166V5.87279C3.95378 4.37597 4.59191 2.94138 5.72583 1.88288C6.85975 0.824378 8.397 0.228526 10.0007 0.226303C11.6047 0.22828 13.1424 0.824123 14.2764 1.88288C15.4104 2.94163 16.0482 4.37664 16.0498 5.8737V9.46712H19.1987V22.4404L0.800781 22.4395ZM2.10083 21.2263H17.9009V10.6798H2.10083V21.2263ZM5.24976 5.87279V9.46621H14.7498V5.87279C14.7484 4.69753 14.2477 3.57077 13.3574 2.73965C12.4671 1.90853 11.2599 1.44094 10.0007 1.43945C8.74127 1.44069 7.53374 1.90853 6.64307 2.73965C5.7524 3.57077 5.25134 4.69729 5.24976 5.87279ZM9.34985 18.2395V16.458C8.95577 16.3316 8.61386 16.0933 8.37183 15.7767C8.12979 15.4601 7.99964 15.081 7.99976 14.6921C7.99976 14.197 8.21038 13.7223 8.58545 13.3723C8.96052 13.0222 9.46932 12.8254 9.99976 12.8254C10.5302 12.8254 11.039 13.0222 11.4141 13.3723C11.7891 13.7223 11.9998 14.197 11.9998 14.6921C11.9999 15.081 11.87 15.4601 11.6279 15.7767C11.3859 16.0933 11.044 16.3316 10.6499 16.458V18.2395H9.34985ZM9.2998 14.693C9.2998 14.8662 9.37361 15.0326 9.50488 15.1551C9.63616 15.2776 9.8141 15.3465 9.99976 15.3465C10.1854 15.3465 10.3636 15.2776 10.4949 15.1551C10.6261 15.0326 10.6997 14.8662 10.6997 14.693C10.6997 14.5197 10.6261 14.3534 10.4949 14.2309C10.3636 14.1083 10.1854 14.0395 9.99976 14.0395C9.81428 14.0397 9.63643 14.1088 9.50537 14.2313C9.37431 14.3538 9.2998 14.5199 9.2998 14.693Z" fill="#33C1EA"/>
</svg>
