<svg width="36" height="36" viewBox="0 0 36 36" fill="none" xmlns="http://www.w3.org/2000/svg">
<rect width="36" height="36" rx="18" fill="#D2D2D2"/>
<path d="M26.0407 24.5627C24.8508 22.5056 23.0172 21.0306 20.8774 20.3314C21.9358 19.7013 22.7582 18.7412 23.2182 17.5984C23.6781 16.4557 23.7503 15.1936 23.4235 14.0059C23.0968 12.8182 22.3892 11.7706 21.4094 11.024C20.4296 10.2774 19.2318 9.87305 18 9.87305C16.7682 9.87305 15.5704 10.2774 14.5907 11.024C13.6109 11.7706 12.9033 12.8182 12.5765 14.0059C12.2498 15.1936 12.3219 16.4557 12.7819 17.5984C13.2419 18.7412 14.0642 19.7013 15.1227 20.3314C12.9828 21.0299 11.1492 22.5049 9.9594 24.5627C9.91577 24.6338 9.88683 24.713 9.87429 24.7955C9.86174 24.878 9.86585 24.9622 9.88638 25.0431C9.9069 25.124 9.94341 25.2 9.99377 25.2665C10.0441 25.3331 10.1073 25.3889 10.1796 25.4306C10.2519 25.4724 10.3318 25.4992 10.4146 25.5096C10.4974 25.5199 10.5814 25.5136 10.6618 25.491C10.7421 25.4683 10.8171 25.4298 10.8823 25.3777C10.9475 25.3256 11.0016 25.261 11.0414 25.1877C12.5133 22.6439 15.1149 21.1252 18 21.1252C20.8852 21.1252 23.4867 22.6439 24.9586 25.1877C24.9985 25.261 25.0526 25.3256 25.1178 25.3777C25.183 25.4298 25.258 25.4683 25.3383 25.491C25.4186 25.5136 25.5027 25.5199 25.5855 25.5096C25.6683 25.4992 25.7482 25.4724 25.8205 25.4306C25.8927 25.3889 25.9559 25.3331 26.0063 25.2665C26.0566 25.2 26.0932 25.124 26.1137 25.0431C26.1342 24.9622 26.1383 24.878 26.1258 24.7955C26.1132 24.713 26.0843 24.6338 26.0407 24.5627ZM13.625 15.5002C13.625 14.6349 13.8816 13.789 14.3623 13.0696C14.8431 12.3501 15.5264 11.7893 16.3258 11.4582C17.1252 11.1271 18.0049 11.0404 18.8535 11.2092C19.7022 11.378 20.4818 11.7947 21.0936 12.4066C21.7055 13.0184 22.1222 13.798 22.291 14.6467C22.4598 15.4953 22.3731 16.375 22.042 17.1744C21.7109 17.9738 21.1501 18.6571 20.4306 19.1379C19.7112 19.6186 18.8653 19.8752 18 19.8752C16.8401 19.8739 15.728 19.4126 14.9078 18.5924C14.0876 17.7722 13.6263 16.6601 13.625 15.5002Z" fill="black"/>
</svg>
