<svg width="18" height="16" viewBox="0 0 18 16" fill="none" xmlns="http://www.w3.org/2000/svg">
<path d="M18.0006 7.99999C18.0006 8.1989 17.9216 8.38967 17.7809 8.53032C17.6403 8.67097 17.4495 8.74999 17.2506 8.74999H2.5609L8.03122 14.2194C8.1009 14.289 8.15617 14.3718 8.19389 14.4628C8.2316 14.5539 8.25101 14.6514 8.25101 14.75C8.25101 14.8485 8.2316 14.9461 8.19389 15.0372C8.15617 15.1282 8.1009 15.2109 8.03122 15.2806C7.96153 15.3503 7.87881 15.4056 7.78776 15.4433C7.69672 15.481 7.59914 15.5004 7.50059 15.5004C7.40204 15.5004 7.30446 15.481 7.21342 15.4433C7.12237 15.4056 7.03965 15.3503 6.96996 15.2806L0.219965 8.53061C0.150233 8.46096 0.0949134 8.37824 0.0571702 8.2872C0.019427 8.19615 0 8.09855 0 7.99999C0 7.90143 0.019427 7.80383 0.0571702 7.71278C0.0949134 7.62174 0.150233 7.53902 0.219965 7.46936L6.96996 0.719365C7.1107 0.578634 7.30157 0.499573 7.50059 0.499573C7.69961 0.499573 7.89048 0.578634 8.03122 0.719365C8.17195 0.860095 8.25101 1.05097 8.25101 1.24999C8.25101 1.44901 8.17195 1.63988 8.03122 1.78061L2.5609 7.24999H17.2506C17.4495 7.24999 17.6403 7.32901 17.7809 7.46966C17.9216 7.61031 18.0006 7.80108 18.0006 7.99999Z" fill="black"/>
</svg>
