<svg width="24" height="28" viewBox="0 0 24 28" fill="none" xmlns="http://www.w3.org/2000/svg">
<path d="M7.77148 10.5195H9.71386V22.1738H7.77148V10.5195Z" fill="#101213"/>
<path d="M13.6006 10.5195H15.543V22.1738H13.6006V10.5195Z" fill="#101213"/>
<path d="M0 4.69141V6.63378H1.94237V26.0575C1.94237 26.5727 2.14702 27.0667 2.51128 27.431C2.87555 27.7953 3.3696 27.9999 3.88475 27.9999H19.4238C19.9389 27.9999 20.433 27.7953 20.7972 27.431C21.1615 27.0667 21.3661 26.5727 21.3661 26.0575V6.63378H23.3085V4.69141H0ZM3.88475 26.0645V6.64072H19.4238V26.0645H3.88475Z" fill="#101213"/>
<path d="M7.77148 0.805664H15.541V2.74804H7.77148V0.805664Z" fill="#101213"/>
</svg>
