<?xml version="1.0" standalone="no"?><!DOCTYPE svg PUBLIC "-//W3C//DTD SVG 20010904//EN" "http://www.w3.org/TR/2001/REC-SVG-20010904/DTD/svg10.dtd"><svg xmlns="http://www.w3.org/2000/svg" version="1.0" width="752.000000pt" height="752.000000pt" viewBox="0 0 752.000000 752.000000" preserveAspectRatio="xMidYMid meet">

<g transform="translate(0.000000,752.000000) scale(0.100000,-0.100000)" fill="#dc3545" stroke="none">
<path d="M3905 5444 c-153 -33 -298 -130 -389 -257 -42 -60 -273 -484 -321 -590 -15 -33 -22 -62 -18 -80 8 -39 57 -77 99 -77 73 0 82 11 240 306 130 243 157 286 214 344 78 80 161 124 278 147 76 15 88 15 169 -1 47 -9 109 -28 137 -41 123 -59 227 -174 264 -295 21 -67 23 -294 3 -383 -10 -44 -10 -65 -1 -92 28 -85 172 -87 198 -3 40 127 50 422 19 538 -46 172 -146 302 -305 394 -141 82 -203 99 -372 103 -102 2 -166 -2 -215 -13z"/>
<path d="M5018 4171 c-105 -5 -120 -8 -140 -29 -35 -35 -31 -107 8 -140 28 -25 29 -25 183 -19 148 6 156 7 180 31 17 18 25 36 25 60 0 68 -41 108 -107 104 -18 -1 -85 -4 -149 -7z"/>
<path d="M3369 4150 c-82 -10 -194 -48 -267 -92 -62 -37 -841 -791 -910 -881 -94 -122 -142 -268 -142 -426 0 -121 19 -203 72 -311 34 -67 60 -103 128 -171 71 -72 101 -93 180 -132 171 -84 351 -99 525 -43 143 46 188 80 462 350 263 259 280 281 260 339 -11 34 -34 47 -83 47 -35 0 -50 -13 -283 -244 -213 -211 -255 -247 -311 -274 -114 -53 -233 -66 -343 -37 -318 83 -478 418 -341 715 33 71 53 93 417 458 213 213 408 401 441 423 142 95 342 106 501 27 63 -32 143 -97 177 -144 39 -55 82 -71 131 -51 72 31 87 99 37 171 -16 24 -60 71 -97 105 -143 132 -351 196 -554 171z"/>
<path d="M4824 3730 c-51 -20 -72 -106 -36 -149 18 -22 519 -231 554 -231 83 0 127 118 62 169 -28 22 -517 221 -541 220 -10 0 -28 -4 -39 -9z"/>
<path d="M3248 3565 c-15 -9 -31 -30 -38 -50 -20 -61 -5 -92 94 -190 73 -73 107 -99 176 -133 122 -59 199 -75 345 -69 99 3 133 9 195 32 173 63 220 118 175 204 -26 51 -83 55 -176 11 -137 -63 -289 -61 -429 7 -57 28 -94 56 -158 120 -74 75 -86 83 -120 83 -20 -1 -49 -7 -64 -15z"/>
<path d="M4618 3395 c-38 -21 -53 -73 -34 -117 8 -18 68 -88 134 -155 115 -119 119 -123 161 -123 75 0 122 70 90 133 -15 28 -226 248 -253 264 -28 16 -65 15 -98 -2z"/>
</g>
</svg>