<svg width="19" height="19" viewBox="0 0 19 19" fill="none" xmlns="http://www.w3.org/2000/svg">
<path d="M9.5 0C7.62108 0 5.78435 0.557165 4.22209 1.60104C2.65982 2.64491 1.44218 4.12861 0.723149 5.86451C0.0041163 7.60041 -0.184016 9.51054 0.182544 11.3534C0.549104 13.1962 1.45389 14.8889 2.78249 16.2175C4.11109 17.5461 5.80383 18.4509 7.64665 18.8175C9.48947 19.184 11.3996 18.9959 13.1355 18.2769C14.8714 17.5578 16.3551 16.3402 17.399 14.7779C18.4428 13.2157 19 11.3789 19 9.5C19 6.98044 17.9991 4.56408 16.2175 2.78249C14.4359 1.00089 12.0196 0 9.5 0ZM15.322 15.322C13.8799 16.7611 11.9537 17.6119 9.91871 17.7086C7.88368 17.8052 5.88553 17.1409 4.31353 15.8449C2.74153 14.5489 1.70827 12.7142 1.41503 10.6981C1.12179 8.68196 1.58957 6.62887 2.72725 4.93879C3.86494 3.2487 5.59104 2.04265 7.56929 1.55559C9.54754 1.06853 11.6363 1.33534 13.4286 2.30405C15.2209 3.27276 16.5884 4.87398 17.2647 6.79578C17.941 8.71759 17.8776 10.8223 17.087 12.7C16.6743 13.6802 16.0748 14.5707 15.322 15.322Z" fill="#33C1EA"/>
<path d="M4.43311 6.967H6.01611V8.55H4.43311V6.967Z" fill="#33C1EA"/>
<path d="M12.667 6.967H14.25V8.55H12.667V6.967Z" fill="#33C1EA"/>
<path d="M8.54989 11.517C8.54998 11.4984 8.55267 11.4799 8.55789 11.462L9.81689 7.056V6.017H8.54989V6.878L7.33989 11.114C7.27752 11.3323 7.26667 11.5621 7.30818 11.7852C7.34969 12.0084 7.44243 12.2189 7.57911 12.4002C7.71578 12.5815 7.89266 12.7285 8.09582 12.8298C8.29898 12.9311 8.52287 12.9839 8.74989 12.984H11.0829V11.717H8.74989C8.69684 11.717 8.64597 11.6959 8.60847 11.6584C8.57096 11.6209 8.54989 11.57 8.54989 11.517Z" fill="#33C1EA"/>
</svg>
