<svg width="215" height="38" viewBox="0 0 215 38" fill="none" xmlns="http://www.w3.org/2000/svg">
<path fill-rule="evenodd" clip-rule="evenodd" d="M21.2516 2.73152C19.1868 1.51565 16.8745 0.91198 14.3382 0.91198C11.8019 0.91198 9.4726 1.51565 7.37789 2.73152C5.31945 3.91326 3.66843 5.56854 2.42696 7.68031V7.68458C1.20469 9.78996 0.607422 12.2153 0.607422 14.9329C0.607422 17.6504 1.20469 20.0886 2.42483 22.2217L2.42909 22.2281L2.43336 22.2345C3.67482 24.3142 5.32585 25.9503 7.38216 27.1299H7.38429L7.38642 27.1321C9.48113 28.3138 11.8041 28.9004 14.3403 28.9004C16.8766 28.9004 19.1846 28.316 21.2495 27.1321C23.3378 25.9525 24.9931 24.3121 26.2047 22.2281C27.4589 20.0928 28.0733 17.6526 28.0733 14.9307C28.0733 12.2089 27.4589 9.78569 26.2047 7.68031C24.9952 5.56641 23.342 3.91112 21.2537 2.73152H21.2516ZM19.7947 18.685V18.6893L19.7904 18.6935C19.2294 19.7302 18.4679 20.5323 17.4973 21.1146H17.4931L17.4888 21.121C16.5566 21.6969 15.5135 21.9892 14.3382 21.9892C13.1629 21.9892 12.1027 21.6991 11.1364 21.1189C10.1979 20.5387 9.43207 19.7366 8.83693 18.6914C8.28446 17.6355 7.99436 16.3898 7.99436 14.9329C7.99436 13.476 8.28659 12.194 8.83693 11.1743C9.4342 10.095 10.2021 9.27801 11.1364 8.69994C12.1027 8.12186 13.165 7.82963 14.3382 7.82963C15.5114 7.82963 16.5566 8.12187 17.4888 8.69781H17.4931L17.4973 8.70421C18.4615 9.28228 19.223 10.095 19.7862 11.1637L19.7926 11.1765L19.799 11.1871C20.3749 12.2025 20.6821 13.4418 20.6821 14.9329C20.6821 16.4239 20.377 17.6312 19.7947 18.6871V18.685Z" fill="#4E4E4E"/>
<path fill-rule="evenodd" clip-rule="evenodd" d="M52.8828 7.66751C51.8077 5.58774 50.3188 3.94099 48.4204 2.75071C46.5368 1.51991 44.4016 0.91198 42.0402 0.91198C40.835 0.91198 39.6768 1.11889 38.5676 1.53484H38.5633L38.559 1.53911C37.5117 1.9444 36.5688 2.47341 35.7412 3.12614C35.5364 3.27973 35.3423 3.43544 35.1567 3.59329C34.9839 3.19226 34.7365 2.82537 34.4123 2.49687C33.7062 1.75455 32.8018 1.38553 31.7651 1.38553C30.7284 1.38553 29.8218 1.75455 29.1158 2.49687C28.4119 3.2072 28.0706 4.10523 28.0706 5.12699V34.1564C28.0706 35.2037 28.4076 36.1274 29.1264 36.8441C29.8368 37.5544 30.7391 37.9 31.7651 37.9C32.7911 37.9 33.7083 37.531 34.4123 36.7886C35.1162 36.0783 35.4596 35.1803 35.4596 34.1585V26.7183C36.3278 27.3283 37.3048 27.8317 38.382 28.2328C39.5893 28.6807 40.8734 28.9026 42.2301 28.9026C44.5317 28.9026 46.62 28.3074 48.4716 27.1086V27.1065C50.338 25.8842 51.8077 24.2247 52.8807 22.1449C53.9942 20.0161 54.5402 17.5886 54.5402 14.8859C54.5402 12.1833 53.9963 9.76863 52.8807 7.67178L52.8828 7.66751ZM46.5774 18.5805V18.5847L46.5731 18.589C46.0675 19.6577 45.3615 20.4811 44.4549 21.0847L44.4507 21.089L44.4464 21.0933C43.5974 21.6777 42.5714 21.9849 41.3299 21.9849C40.0885 21.9849 39.0432 21.6777 38.1559 21.0869C37.2493 20.4832 36.5262 19.6556 35.9886 18.5847C35.481 17.4798 35.2207 16.249 35.2207 14.8817C35.2207 13.5144 35.4831 12.2665 35.9844 11.2341C36.5219 10.159 37.2472 9.33134 38.1537 8.72554C39.0411 8.13467 40.0863 7.8275 41.3278 7.8275C42.5693 7.8275 43.5931 8.13466 44.4443 8.71913L44.4485 8.7234L44.4528 8.72767C45.3572 9.33134 46.0633 10.1547 46.571 11.2234L46.5774 11.2362L46.5838 11.249C47.1128 12.2793 47.3901 13.4845 47.3901 14.8838C47.3901 16.2831 47.1149 17.4777 46.5774 18.5826V18.5805Z" fill="#4E4E4E"/>
<path fill-rule="evenodd" clip-rule="evenodd" d="M100.636 2.56918C99.2242 1.41944 97.2319 0.911765 94.798 0.911765C93.6355 0.911765 92.5412 1.09948 91.5237 1.48344C90.5361 1.82473 89.6423 2.28975 88.8446 2.87849C88.4009 3.20485 87.9892 3.55041 87.6095 3.91517C87.441 3.38616 87.153 2.90835 86.7434 2.49666C86.0374 1.75434 85.133 1.38531 84.0963 1.38531C83.0596 1.38531 82.153 1.75434 81.4491 2.49666C80.7452 3.20698 80.4017 4.10502 80.4017 5.12677V14.3141C80.4017 12.4988 80.0476 10.7731 79.3394 9.14767C78.6697 7.54145 77.7439 6.1272 76.5664 4.91346C75.3889 3.66986 74.0216 2.69077 72.473 1.98258C70.9372 1.26586 69.2989 0.90963 67.569 0.90963C65.3314 0.90963 63.2111 1.4877 61.223 2.63317C59.22 3.78718 57.601 5.44674 56.3638 7.58624V7.59051C55.1373 9.73641 54.5464 12.3047 54.5464 15.259C54.5464 17.8166 55.0946 20.1353 56.2123 22.2001V22.2044L56.2166 22.2087C57.3663 24.2714 58.9939 25.9139 61.0801 27.1255L61.0865 27.1297L61.0929 27.134C63.2302 28.32 65.7132 28.8981 68.5161 28.8981C70.1863 28.8981 71.8117 28.6314 73.3838 28.096H73.3924L73.4009 28.0896C74.9325 27.535 76.1825 26.8802 77.1061 26.1016C78.1172 25.3038 78.7464 24.3076 78.7464 23.1195C78.7464 22.2513 78.4116 21.4898 77.7972 20.8691C77.1829 20.2163 76.3851 19.8985 75.4785 19.8985C74.8109 19.8985 74.1432 20.0862 73.4862 20.4147L73.4734 20.4211L73.4606 20.4275C73.0916 20.628 72.682 20.8755 72.2319 21.1656C71.9162 21.3576 71.4512 21.5517 70.8028 21.7287C70.2119 21.8908 69.3672 21.9826 68.2345 21.9826C67.1018 21.9826 66.0587 21.7202 65.0455 21.189C64.0814 20.6366 63.2729 19.8473 62.6202 18.7978C62.4282 18.4651 62.2661 18.1067 62.1317 17.7228H76.6624C77.6138 17.7228 78.4713 17.4198 79.1965 16.814C79.9559 16.1826 80.3612 15.3379 80.4017 14.3482V14.3311V24.6852C80.4017 25.7112 80.7452 26.6199 81.4406 27.3558L81.4491 27.3644L81.4576 27.3729C82.1679 28.0832 83.0702 28.4288 84.0984 28.4288C85.1266 28.4288 86.0267 28.0854 86.737 27.3729L86.7456 27.3644L86.7541 27.3558C87.4495 26.6199 87.7929 25.7134 87.7929 24.6852V12.5628C87.7929 11.6477 87.9849 10.8606 88.3518 10.178C88.7486 9.46551 89.301 8.8981 90.022 8.46935C90.7494 8.05553 91.6667 7.82728 92.8143 7.82728C93.9619 7.82728 94.8044 8.06406 95.2951 8.42242C95.8326 8.81278 96.1974 9.33112 96.4 10.0116L96.4064 10.0308L96.4128 10.05C96.6602 10.7646 96.7925 11.6007 96.7925 12.5649V24.6873C96.7925 25.7133 97.1359 26.6221 97.8313 27.358L97.8399 27.3665L97.8484 27.375C98.5587 28.0854 99.461 28.4309 100.489 28.4309C101.517 28.4309 102.417 28.0875 103.128 27.375L103.136 27.3665L103.145 27.358C103.84 26.6221 104.184 25.7155 104.184 24.6873V12.5649C104.184 10.5129 103.941 8.6336 103.441 6.93565C102.955 5.13957 102.027 3.66987 100.645 2.57132L100.636 2.56918ZM62.185 11.2829C62.4986 10.3849 62.9082 9.71508 63.3881 9.23513C63.8872 8.73599 64.476 8.38189 65.1671 8.16858C65.8988 7.9446 66.6965 7.82728 67.569 7.82728C68.4414 7.82728 69.1944 8.01713 69.9218 8.39469L69.9389 8.40322L69.9559 8.41176C70.7238 8.76799 71.3403 9.25433 71.8224 9.86866L71.8288 9.8772L71.8352 9.88573C72.1914 10.3166 72.4261 10.7795 72.5476 11.2829H62.185Z" fill="#4E4E4E"/>
<path fill-rule="evenodd" clip-rule="evenodd" d="M136.237 7.66706C135.162 5.58729 133.673 3.94054 131.774 2.75026C129.891 1.51946 127.758 0.91153 125.396 0.91153C124.191 0.91153 123.033 1.11844 121.924 1.53439H121.919L121.915 1.53866C120.868 1.94395 119.925 2.47296 119.097 3.12569C118.893 3.27928 118.699 3.43499 118.513 3.59284C118.34 3.19181 118.093 2.82492 117.768 2.49642C117.062 1.7541 116.158 1.38508 115.121 1.38508C114.085 1.38508 113.178 1.7541 112.474 2.49642C111.77 3.20461 111.427 4.10478 111.427 5.12654V34.1559C111.427 35.2033 111.764 36.1269 112.483 36.8437C113.193 37.554 114.095 37.8995 115.123 37.8995C116.152 37.8995 117.067 37.5305 117.771 36.7882C118.475 36.0779 118.818 35.1798 118.818 34.1581V26.7178C119.686 27.3279 120.663 27.8313 121.74 28.2323C122.948 28.6803 124.232 28.9021 125.588 28.9021C127.89 28.9021 129.978 28.307 131.83 27.1082H131.834C133.701 25.8838 135.17 24.2242 136.243 22.1466C137.359 20.0177 137.903 17.5903 137.903 14.8855C137.903 12.1807 137.359 9.76818 136.243 7.67133L136.237 7.66706ZM129.931 18.58V18.5843L129.927 18.5886C129.422 19.6572 128.716 20.4806 127.809 21.0843L127.805 21.0885L127.8 21.0928C126.951 21.6773 125.925 21.9845 124.684 21.9845C123.443 21.9845 122.397 21.6773 121.51 21.0864C120.603 20.4828 119.88 19.6551 119.343 18.5843C118.835 17.4793 118.575 16.2485 118.575 14.8812C118.575 13.5139 118.837 12.266 119.338 11.2336C119.876 10.1585 120.601 9.33089 121.51 8.72509C122.397 8.13422 123.443 7.82705 124.684 7.82705C125.925 7.82705 126.949 8.13421 127.8 8.71868L127.805 8.72295L127.809 8.72722C128.713 9.33089 129.419 10.1543 129.927 11.223L129.934 11.2357L129.94 11.2485C130.469 12.2788 130.746 13.484 130.746 14.8834C130.746 16.2827 130.471 17.4772 129.934 18.5822L129.931 18.58Z" fill="#4E4E4E"/>
<path fill-rule="evenodd" clip-rule="evenodd" d="M163.495 7.67965C162.286 5.56574 160.633 3.91046 158.544 2.72872C156.479 1.51285 154.167 0.90918 151.631 0.90918C149.095 0.90918 146.763 1.51285 144.668 2.72872C142.61 3.91046 140.959 5.56574 139.72 7.67538V7.67965C138.495 9.78502 137.898 12.2104 137.898 14.9279C137.898 17.6455 138.495 20.0836 139.715 22.2168L139.72 22.2231L139.724 22.2295C140.965 24.3093 142.616 25.9454 144.673 27.125H144.675L144.677 27.1271C146.772 28.3089 149.095 28.8955 151.631 28.8955C154.167 28.8955 156.475 28.311 158.54 27.1271C160.628 25.9475 162.284 24.3072 163.495 22.2231C164.749 20.0879 165.364 17.6476 165.364 14.9258C165.364 12.204 164.749 9.78076 163.495 7.67752V7.67965ZM157.087 18.6843V18.6886L157.083 18.6929C156.522 19.7295 155.761 20.5316 154.79 21.1139H154.786L154.781 21.1203C153.849 21.6963 152.806 21.9885 151.631 21.9885C150.456 21.9885 149.395 21.6984 148.429 21.1182C147.491 20.538 146.725 19.7359 146.13 18.6907C145.577 17.6348 145.287 16.3912 145.287 14.9322C145.287 13.4732 145.579 12.1933 146.13 11.1737C146.727 10.0943 147.495 9.27734 148.429 8.69927C149.395 8.1212 150.458 7.82897 151.631 7.82897C152.804 7.82897 153.849 8.1212 154.781 8.69714H154.786L154.79 8.70354C155.754 9.28161 156.516 10.0943 157.079 11.163L157.085 11.1758L157.092 11.1865C157.668 12.2018 157.975 13.4412 157.975 14.9322C157.975 16.4232 157.67 17.6306 157.087 18.6865V18.6843Z" fill="#4E4E4E"/>
<path fill-rule="evenodd" clip-rule="evenodd" d="M214.256 6.93115C213.769 5.13507 212.839 3.66749 211.457 2.56681C210.045 1.41707 208.055 0.91153 205.621 0.91153C204.458 0.91153 203.364 1.09924 202.347 1.4832C201.359 1.8245 200.465 2.28951 199.667 2.87825C199.224 3.20462 198.812 3.55018 198.432 3.91494C198.264 3.38593 197.976 2.90811 197.566 2.49642C196.86 1.7541 195.956 1.38508 194.917 1.38508C193.878 1.38508 192.976 1.7541 192.27 2.49642C191.566 3.20461 191.223 4.10478 191.223 5.12654V14.3138C191.223 12.4964 190.868 10.7729 190.16 9.14744C189.49 7.54121 188.567 6.1291 187.387 4.91536C186.21 3.67176 184.842 2.69267 183.294 1.98448C181.758 1.26776 180.12 0.91153 178.39 0.91153C176.152 0.91153 174.032 1.4896 172.044 2.63507C170.041 3.78908 168.422 5.44864 167.185 7.58814V7.5924C165.958 9.73831 165.367 12.3066 165.367 15.2609C165.367 17.8185 165.915 20.1372 167.033 22.202V22.2063L167.037 22.2106C168.187 24.2733 169.815 25.9158 171.901 27.1274L171.907 27.1316L171.914 27.1359C174.051 28.3219 176.534 28.9 179.337 28.9C181.009 28.9 182.633 28.6333 184.205 28.0979H184.213L184.222 28.0915C185.753 27.5369 187.003 26.8821 187.927 26.1035C188.938 25.3057 189.567 24.3095 189.567 23.1214C189.567 22.2532 189.234 21.4917 188.618 20.871C188.004 20.2183 187.206 19.9004 186.299 19.9004C185.632 19.9004 184.964 20.0881 184.307 20.4166L184.294 20.423L184.281 20.4294C183.912 20.6299 183.503 20.8774 183.053 21.1675C182.737 21.3595 182.27 21.5536 181.624 21.7306C181.033 21.8927 180.188 21.9845 179.053 21.9845C177.918 21.9845 176.877 21.7221 175.864 21.1909C174.9 20.6385 174.092 19.8471 173.439 18.7997C173.247 18.467 173.085 18.1086 172.953 17.7247H187.483C188.435 17.7247 189.292 17.4217 190.019 16.8159C190.779 16.1845 191.184 15.3398 191.225 14.3501V14.333V24.6871C191.225 25.7131 191.568 26.6218 192.263 27.3577L192.272 27.3663L192.281 27.3748C192.991 28.0851 193.893 28.4307 194.919 28.4307C195.945 28.4307 196.85 28.0873 197.56 27.3748L197.569 27.3663L197.577 27.3577C198.27 26.6218 198.614 25.7152 198.614 24.6871V12.5647C198.614 11.6496 198.808 10.8625 199.173 10.182C199.569 9.46741 200.122 8.9 200.843 8.47338C201.57 8.05956 202.487 7.83132 203.633 7.83132C204.778 7.83132 205.623 8.06809 206.116 8.42645C206.651 8.81681 207.018 9.33515 207.219 10.0156L207.225 10.0348L207.231 10.054C207.479 10.7686 207.611 11.6048 207.611 12.5689V24.6914C207.611 25.7174 207.955 26.6261 208.648 27.362L208.656 27.3705L208.665 27.3791C209.375 28.0894 210.278 28.435 211.306 28.435C212.334 28.435 213.234 28.0915 213.944 27.3791L213.953 27.3705L213.961 27.362C214.657 26.6261 215 25.7195 215 24.6914V12.5689C215 10.5169 214.755 8.63763 214.258 6.93755L214.256 6.93115ZM173.008 11.2827C173.322 10.3846 173.731 9.71484 174.211 9.2349C174.71 8.73575 175.301 8.38166 175.99 8.16834C176.722 7.94437 177.519 7.82705 178.392 7.82705C179.264 7.82705 180.017 8.01689 180.747 8.39445L180.764 8.40299L180.781 8.41152C181.549 8.76775 182.165 9.2541 182.647 9.86843L182.654 9.87696L182.66 9.88549C183.016 10.3164 183.251 10.7793 183.373 11.2827H173.01H173.008Z" fill="#4E4E4E"/>
</svg>
