<svg width="40" height="40" viewBox="0 0 40 40" fill="none" xmlns="http://www.w3.org/2000/svg">
<path fill-rule="evenodd" clip-rule="evenodd" d="M40 20C40 31.0457 31.0457 40 20 40C8.95431 40 0 31.0457 0 20C0 8.9543 8.95431 0 20 0C31.0457 0 40 8.9543 40 20ZM17.0558 12.4873C15.8782 12.4873 14.9239 13.4416 14.9239 14.6193C14.9239 15.797 15.8782 16.7513 17.0558 16.7513H24.9746C26.1523 16.7513 27.1066 15.797 27.1066 14.6193C27.1066 13.4416 26.1523 12.4873 24.9746 12.4873H17.0558ZM14.9239 25.7868C14.9239 24.6091 15.8782 23.6548 17.0558 23.6548H24.9746C26.1523 23.6548 27.1066 24.6091 27.1066 25.7868C27.1066 26.9645 26.1523 27.9188 24.9746 27.9188H17.0558C15.8782 27.9188 14.9239 26.9645 14.9239 25.7868ZM21.0152 18.0711H13.0964C11.9188 18.0711 10.9645 19.0254 10.9645 20.203C10.9645 21.3807 11.9188 22.335 13.0964 22.335H21.0152C22.1929 22.335 23.1472 21.3807 23.1472 20.203C23.1472 19.0254 22.1929 18.0711 21.0152 18.0711ZM21.0152 11.1675C22.1927 11.1675 23.1472 10.213 23.1472 9.03553C23.1472 7.85807 22.1927 6.90355 21.0152 6.90355C19.8378 6.90355 18.8833 7.85807 18.8833 9.03553C18.8833 10.213 19.8378 11.1675 21.0152 11.1675ZM23.1472 30.9645C23.1472 32.1419 22.1927 33.0964 21.0152 33.0964C19.8378 33.0964 18.8833 32.1419 18.8833 30.9645C18.8833 29.787 19.8378 28.8325 21.0152 28.8325C22.1927 28.8325 23.1472 29.787 23.1472 30.9645Z" fill="#2760D5"/>
</svg>
