<svg width="20" height="20" viewBox="0 0 20 20" fill="none" xmlns="http://www.w3.org/2000/svg">
<path d="M9.99998 5.50004C9.10997 5.50004 8.23994 5.76396 7.49992 6.25843C6.75989 6.7529 6.18312 7.4557 5.84252 8.27797C5.50193 9.10024 5.41282 10.005 5.58645 10.8779C5.76008 11.7509 6.18867 12.5527 6.818 13.182C7.44734 13.8114 8.24916 14.2399 9.12208 14.4136C9.99499 14.5872 10.8998 14.4981 11.7221 14.1575C12.5443 13.8169 13.2471 13.2401 13.7416 12.5001C14.2361 11.7601 14.5 10.8901 14.5 10C14.4987 8.80695 14.0242 7.66308 13.1806 6.81943C12.3369 5.97579 11.1931 5.50128 9.99998 5.50004ZM9.99998 13C9.40664 13 8.82662 12.8241 8.33327 12.4945C7.83992 12.1648 7.45541 11.6963 7.22834 11.1481C7.00128 10.5999 6.94187 9.99672 7.05763 9.41477C7.17338 8.83283 7.4591 8.29828 7.87866 7.87872C8.29822 7.45917 8.83277 7.17344 9.41471 7.05769C9.99665 6.94193 10.5999 7.00134 11.148 7.2284C11.6962 7.45547 12.1647 7.83999 12.4944 8.33333C12.824 8.82668 13 9.4067 13 10C13 10.7957 12.6839 11.5588 12.1213 12.1214C11.5587 12.684 10.7956 13 9.99998 13ZM18.25 10.2025C18.2537 10.0675 18.2537 9.93254 18.25 9.79754L19.6487 8.05004C19.7221 7.95829 19.7728 7.8506 19.7969 7.73563C19.821 7.62067 19.8178 7.50165 19.7875 7.38817C19.5582 6.52623 19.2152 5.69865 18.7675 4.92723C18.7089 4.82628 18.6275 4.7404 18.5298 4.67644C18.4322 4.61248 18.3209 4.57219 18.205 4.55879L15.9812 4.31129C15.8887 4.21379 15.795 4.12004 15.7 4.03004L15.4375 1.80067C15.424 1.68462 15.3836 1.57333 15.3194 1.47567C15.2553 1.37801 15.1692 1.29668 15.0681 1.23817C14.2964 0.791306 13.4689 0.448637 12.6072 0.219105C12.4936 0.188915 12.3746 0.185827 12.2596 0.210091C12.1446 0.234354 12.037 0.28529 11.9453 0.358793L10.2025 1.75004C10.0675 1.75004 9.93248 1.75004 9.79748 1.75004L8.04998 0.354105C7.95823 0.280763 7.85053 0.229997 7.73557 0.205897C7.62061 0.181797 7.50159 0.185037 7.38811 0.215355C6.52631 0.445068 5.69878 0.788058 4.92717 1.23536C4.82622 1.29397 4.74034 1.37535 4.67638 1.473C4.61242 1.57065 4.57213 1.68189 4.55873 1.79786L4.31123 4.02536C4.21373 4.11848 4.11998 4.21223 4.02998 4.30661L1.80061 4.56254C1.68456 4.57605 1.57326 4.61647 1.4756 4.6806C1.37794 4.74473 1.29662 4.83079 1.23811 4.93192C0.791245 5.70363 0.448576 6.53114 0.219044 7.39286C0.188854 7.50641 0.185766 7.62547 0.21003 7.74044C0.234293 7.8554 0.285229 7.96306 0.358732 8.05473L1.74998 9.79754C1.74998 9.93254 1.74998 10.0675 1.74998 10.2025L0.354044 11.95C0.280702 12.0418 0.229936 12.1495 0.205836 12.2645C0.181736 12.3794 0.184976 12.4984 0.215294 12.6119C0.444597 13.4739 0.787609 14.3014 1.23529 15.0729C1.29391 15.1738 1.37529 15.2597 1.47294 15.3236C1.57059 15.3876 1.68183 15.4279 1.79779 15.4413L4.02154 15.6888C4.11467 15.7863 4.20842 15.88 4.30279 15.97L4.56248 18.1994C4.57598 18.3155 4.61641 18.4268 4.68054 18.5244C4.74467 18.6221 4.83073 18.7034 4.93186 18.7619C5.70357 19.2088 6.53108 19.5515 7.3928 19.781C7.50635 19.8112 7.62541 19.8143 7.74038 19.79C7.85534 19.7657 7.963 19.7148 8.05467 19.6413L9.79748 18.25C9.93248 18.2538 10.0675 18.2538 10.2025 18.25L11.95 19.6488C12.0417 19.7221 12.1494 19.7729 12.2644 19.797C12.3794 19.8211 12.4984 19.8179 12.6119 19.7875C13.4738 19.5582 14.3014 19.2152 15.0728 18.7675C15.1737 18.7089 15.2596 18.6276 15.3236 18.5299C15.3875 18.4322 15.4278 18.321 15.4412 18.205L15.6887 15.9813C15.7862 15.8888 15.88 15.795 15.97 15.7L18.1994 15.4375C18.3154 15.424 18.4267 15.3836 18.5244 15.3195C18.622 15.2554 18.7033 15.1693 18.7619 15.0682C19.2087 14.2965 19.5514 13.4689 19.7809 12.6072C19.8111 12.4937 19.8142 12.3746 19.7899 12.2597C19.7657 12.1447 19.7147 12.037 19.6412 11.9454L18.25 10.2025ZM16.7406 9.59317C16.7565 9.86419 16.7565 10.1359 16.7406 10.4069C16.7294 10.5925 16.7876 10.7756 16.9037 10.9207L18.234 12.5829C18.0814 13.068 17.8859 13.5386 17.65 13.9891L15.5312 14.2291C15.3467 14.2496 15.1764 14.3378 15.0531 14.4766C14.8726 14.6796 14.6804 14.8718 14.4775 15.0522C14.3387 15.1755 14.2505 15.3458 14.23 15.5304L13.9947 17.6472C13.5442 17.8833 13.0736 18.0788 12.5884 18.2313L10.9253 16.901C10.7922 16.7946 10.6269 16.7368 10.4565 16.7369H10.4115C10.1405 16.7529 9.86881 16.7529 9.5978 16.7369C9.41225 16.7257 9.22916 16.7839 9.08405 16.9L7.41717 18.2313C6.93204 18.0786 6.46144 17.8832 6.01092 17.6472L5.77092 15.5313C5.75044 15.3468 5.66225 15.1764 5.52342 15.0532C5.32046 14.8727 5.12825 14.6805 4.94779 14.4775C4.82454 14.3387 4.65418 14.2505 4.46967 14.23L2.35279 13.9938C2.11672 13.5433 1.92126 13.0727 1.76873 12.5875L3.09904 10.9244C3.21521 10.7793 3.27334 10.5962 3.26217 10.4107C3.24623 10.1397 3.24623 9.86793 3.26217 9.59692C3.27334 9.41137 3.21521 9.22829 3.09904 9.08317L1.76873 7.41723C1.92138 6.93211 2.11684 6.4615 2.35279 6.01098L4.46873 5.77098C4.65325 5.7505 4.82361 5.66231 4.94686 5.52348C5.12732 5.32052 5.31952 5.12832 5.52248 4.94786C5.66187 4.82452 5.75042 4.65377 5.77092 4.46879L6.00623 2.35286C6.4567 2.11679 6.92731 1.92132 7.41248 1.76879L9.07561 3.09911C9.22073 3.21527 9.40381 3.2734 9.58936 3.26223C9.86037 3.24629 10.1321 3.24629 10.4031 3.26223C10.5887 3.2734 10.7717 3.21527 10.9169 3.09911L12.5828 1.76879C13.0679 1.92144 13.5385 2.1169 13.989 2.35286L14.229 4.46879C14.2495 4.65331 14.3377 4.82367 14.4765 4.94692C14.6795 5.12738 14.8717 5.31958 15.0522 5.52254C15.1754 5.66138 15.3458 5.74956 15.5303 5.77004L17.6472 6.00536C17.8832 6.45583 18.0787 6.92644 18.2312 7.41161L16.9009 9.07473C16.7836 9.22107 16.7254 9.40604 16.7378 9.59317H16.7406Z" fill="black"/>
</svg>
