<svg width="122" height="32" viewBox="0 0 122 32" fill="none" xmlns="http://www.w3.org/2000/svg">
<g clip-path="url(#clip0_1_2)">
<path fill-rule="evenodd" clip-rule="evenodd" d="M32 16C32 24.8366 24.8366 32 16 32C7.16345 32 0 24.8366 0 16C0 7.16344 7.16345 0 16 0C24.8366 0 32 7.16344 32 16ZM19.9797 9.98984H13.6446C12.7025 9.98984 11.9391 10.7533 11.9391 11.6954C11.9391 12.6376 12.7025 13.401 13.6446 13.401H19.9797C20.9218 13.401 21.6853 12.6376 21.6853 11.6954C21.6853 10.7533 20.9218 9.98984 19.9797 9.98984ZM13.6446 18.9239H19.9797C20.9218 18.9239 21.6853 19.6873 21.6853 20.6294C21.6853 21.5716 20.9218 22.335 19.9797 22.335H13.6446C12.7025 22.335 11.9391 21.5716 11.9391 20.6294C11.9391 19.6873 12.7025 18.9239 13.6446 18.9239ZM16.8121 14.4568H10.4771C9.53494 14.4568 8.77148 15.2203 8.77148 16.1624C8.77148 17.1046 9.53494 17.868 10.4771 17.868H16.8121C17.7542 17.868 18.5177 17.1046 18.5177 16.1624C18.5177 15.2203 17.7542 14.4568 16.8121 14.4568ZM16.8122 8.93401C17.7542 8.93401 18.5178 8.17039 18.5178 7.22842C18.5178 6.28646 17.7542 5.52284 16.8122 5.52284C15.8703 5.52284 15.1066 6.28646 15.1066 7.22842C15.1066 8.17039 15.8703 8.93401 16.8122 8.93401ZM18.5178 24.7716C18.5178 25.7135 17.7542 26.4772 16.8122 26.4772C15.8703 26.4772 15.1066 25.7135 15.1066 24.7716C15.1066 23.8296 15.8703 23.066 16.8122 23.066C17.7542 23.066 18.5178 23.8296 18.5178 24.7716Z" fill="#2760D5"/>
<path fill-rule="evenodd" clip-rule="evenodd" d="M45.1829 11.7221C44.3645 11.2401 43.4479 11.0009 42.4426 11.0009C41.4373 11.0009 40.514 11.2401 39.6837 11.7221C38.8677 12.1905 38.2133 12.8466 37.7212 13.6837V13.6854C37.2367 14.5199 37 15.4812 37 16.5584C37 17.6356 37.2367 18.6021 37.7204 19.4476L37.7221 19.4501L37.7238 19.4526C38.2159 20.277 38.8703 20.9255 39.6854 21.3931L39.6871 21.394C40.5174 21.8624 41.4381 22.0949 42.4434 22.0949C43.4488 22.0949 44.3636 21.8632 45.1821 21.394C46.0098 20.9264 46.666 20.2762 47.1462 19.4501C47.6434 18.6037 47.8869 17.6365 47.8869 16.5576C47.8869 15.4787 47.6434 14.5182 47.1462 13.6837C46.6668 12.8458 46.0106 12.1897 45.1829 11.7221ZM44.6054 18.0474L44.6037 18.0491C44.3814 18.46 44.0795 18.7779 43.6948 19.0087H43.6931L43.6914 19.0113C43.3219 19.2396 42.9085 19.3554 42.4426 19.3554C41.9767 19.3554 41.5565 19.2404 41.1735 19.0104C40.8014 18.7805 40.4979 18.4625 40.262 18.0482C40.043 17.6297 39.928 17.1359 39.928 16.5584C39.928 15.9809 40.0439 15.4728 40.262 15.0686C40.4988 14.6408 40.8031 14.317 41.1735 14.0878C41.5565 13.8587 41.9776 13.7429 42.4426 13.7429C42.9076 13.7429 43.3219 13.8587 43.6914 14.087H43.6931L43.6948 14.0895C44.077 14.3187 44.3788 14.6408 44.602 15.0644L44.6046 15.0695L44.6071 15.0737C44.8354 15.4762 44.9572 15.9674 44.9572 16.5584C44.9572 17.1495 44.8363 17.6288 44.6054 18.0474Z" fill="#4E4E4E"/>
<path fill-rule="evenodd" clip-rule="evenodd" d="M57.7218 13.6786C57.2956 12.8542 56.7055 12.2015 55.953 11.7297C55.2064 11.2418 54.36 11.0009 53.424 11.0009C52.9463 11.0009 52.4872 11.0829 52.0475 11.2477H52.0458L52.0441 11.2494C51.629 11.4101 51.2553 11.6198 50.9272 11.8785C50.846 11.9394 50.7691 12.0011 50.6955 12.0637C50.627 11.9047 50.529 11.7593 50.4004 11.6291C50.1206 11.3348 49.7621 11.1886 49.3512 11.1886C48.9402 11.1886 48.5809 11.3348 48.301 11.6291C48.022 11.9106 47.8867 12.2666 47.8867 12.6716V24.1782C47.8867 24.5934 48.0203 24.9595 48.3052 25.2436C48.5868 25.5252 48.9445 25.6621 49.3512 25.6621C49.7578 25.6621 50.1214 25.5159 50.4004 25.2216C50.6795 24.9401 50.8156 24.5841 50.8156 24.1791V21.2299C51.1597 21.4717 51.547 21.6713 51.9739 21.8302C52.4525 22.0078 52.9615 22.0957 53.4993 22.0957C54.4116 22.0957 55.2393 21.8598 55.9732 21.3847C56.7131 20.9002 57.2956 20.2415 57.7209 19.4171C58.1623 18.5733 58.3787 17.6111 58.3787 16.5398C58.3787 15.4686 58.1631 14.5114 57.7209 13.6803L57.7218 13.6786ZM55.2224 18.006L55.2207 18.0077C55.0203 18.4313 54.7405 18.7576 54.3811 18.9969L54.3794 18.9986L54.3778 19.0003C54.0412 19.232 53.6345 19.3537 53.1425 19.3537C52.6504 19.3537 52.2361 19.232 51.8843 18.9978C51.525 18.7585 51.2383 18.4304 51.0253 18.006C50.824 17.568 50.7209 17.0801 50.7209 16.5381C50.7209 15.9962 50.8249 15.5015 51.0236 15.0923C51.2367 14.6662 51.5241 14.3381 51.8835 14.098C52.2352 13.8638 52.6495 13.742 53.1416 13.742C53.6337 13.742 54.0395 13.8638 54.3769 14.0954L54.3786 14.0971L54.3803 14.0988C54.7388 14.3381 55.0187 14.6645 55.2199 15.0881L55.2224 15.0932L55.225 15.0982C55.4347 15.5066 55.5446 15.9843 55.5446 16.539C55.5446 17.0937 55.4355 17.568 55.2224 18.006Z" fill="#4E4E4E"/>
<path fill-rule="evenodd" clip-rule="evenodd" d="M76.65 11.6578C76.0902 11.2021 75.3005 11.0008 74.3358 11.0008C73.875 11.0008 73.4412 11.0753 73.0379 11.2274C72.6464 11.3627 72.2922 11.5471 71.9759 11.7804C71.8001 11.9098 71.6369 12.0468 71.4864 12.1913C71.4196 11.9816 71.3054 11.7922 71.1431 11.6291C70.8632 11.3348 70.5047 11.1886 70.0938 11.1886C69.6829 11.1886 69.3235 11.3348 69.0445 11.6291C68.7655 11.9106 68.6294 12.2666 68.6294 12.6716V16.3132C68.6294 15.5937 68.489 14.9097 68.2083 14.2654C67.9428 13.6287 67.5759 13.0681 67.1091 12.587C66.6424 12.0941 66.1004 11.706 65.4866 11.4253C64.8778 11.1412 64.2285 11 63.5427 11C62.6558 11 61.8154 11.2291 61.0273 11.6832C60.2334 12.1406 59.5916 12.7984 59.1012 13.6465V13.6482C58.6151 14.4988 58.3809 15.5168 58.3809 16.6878C58.3809 17.7016 58.5982 18.6206 59.0412 19.4391V19.4408L59.0429 19.4425C59.4986 20.2601 60.1438 20.9112 60.9707 21.3914L60.9732 21.3931L60.9758 21.3948C61.823 21.8649 62.8071 22.094 63.9182 22.094C64.5802 22.094 65.2245 21.9883 65.8476 21.7761H65.851L65.8544 21.7736C66.4615 21.5537 66.9569 21.2942 67.3231 20.9856C67.7238 20.6693 67.9733 20.2745 67.9733 19.8035C67.9733 19.4594 67.8405 19.1576 67.597 18.9115C67.3535 18.6528 67.0373 18.5268 66.6779 18.5268C66.4133 18.5268 66.1486 18.6012 65.8882 18.7314L65.8831 18.7339L65.8781 18.7365C65.7318 18.816 65.5694 18.914 65.391 19.029C65.2659 19.1051 65.0816 19.1821 64.8245 19.2522C64.5903 19.3165 64.2555 19.3529 63.8065 19.3529C63.3576 19.3529 62.9441 19.2489 62.5425 19.0383C62.1603 18.8193 61.8399 18.5065 61.5811 18.0905C61.505 17.9586 61.4408 17.8166 61.3875 17.6644H67.1472C67.5243 17.6644 67.8642 17.5443 68.1517 17.3042C68.4527 17.0539 68.6133 16.7191 68.6294 16.3268V16.32V20.4241C68.6294 20.8308 68.7655 21.191 69.0411 21.4827L69.0445 21.4861L69.0479 21.4895C69.3295 21.771 69.6871 21.908 70.0947 21.908C70.5022 21.908 70.859 21.7719 71.1406 21.4895L71.1439 21.4861L71.1473 21.4827C71.423 21.191 71.5591 20.8317 71.5591 20.4241V15.6191C71.5591 15.2563 71.6352 14.9443 71.7806 14.6738C71.9379 14.3914 72.1569 14.1665 72.4427 13.9965C72.731 13.8325 73.0946 13.742 73.5494 13.742C74.0043 13.742 74.3383 13.8359 74.5328 13.9779C74.7458 14.1326 74.8904 14.3381 74.9708 14.6078L74.9733 14.6154L74.9758 14.623C75.0739 14.9063 75.1263 15.2377 75.1263 15.6199V20.425C75.1263 20.8317 75.2625 21.1919 75.5381 21.4836L75.5415 21.487L75.5449 21.4903C75.8264 21.7719 76.1841 21.9089 76.5916 21.9089C76.9992 21.9089 77.356 21.7727 77.6375 21.4903L77.6409 21.487L77.6443 21.4836C77.9199 21.1919 78.056 20.8325 78.056 20.425V15.6199C78.056 14.8065 77.9597 14.0616 77.7618 13.3886C77.569 12.6767 77.2012 12.0941 76.6533 11.6587L76.65 11.6578ZM61.4087 15.1118C61.5329 14.7558 61.6953 14.4903 61.8855 14.3001C62.0834 14.1022 62.3167 13.9618 62.5907 13.8773C62.8807 13.7885 63.1969 13.742 63.5427 13.742C63.8886 13.742 64.187 13.8173 64.4753 13.9669L64.4821 13.9703L64.4889 13.9737C64.7933 14.1149 65.0376 14.3077 65.2287 14.5512L65.2312 14.5546L65.2338 14.5579C65.375 14.7287 65.468 14.9122 65.5162 15.1118H61.4087Z" fill="#4E4E4E"/>
<path fill-rule="evenodd" clip-rule="evenodd" d="M90.76 13.6786C90.3339 12.8542 89.7437 12.2015 88.9912 11.7297C88.2446 11.2418 87.3991 11.0009 86.4631 11.0009C85.9854 11.0009 85.5262 11.0829 85.0866 11.2477H85.0849L85.0832 11.2494C84.668 11.4101 84.2943 11.6198 83.9663 11.8785C83.8851 11.9394 83.8082 12.0011 83.7346 12.0637C83.6661 11.9047 83.568 11.7593 83.4395 11.6291C83.1596 11.3348 82.8011 11.1886 82.3902 11.1886C81.9793 11.1886 81.62 11.3348 81.3409 11.6291C81.0619 11.9098 80.9258 12.2666 80.9258 12.6716V24.1782C80.9258 24.5934 81.0594 24.9595 81.3443 25.2436C81.6259 25.5252 81.9835 25.6621 82.3911 25.6621C82.7986 25.6621 83.1613 25.5159 83.4404 25.2216C83.7194 24.9401 83.8555 24.5841 83.8555 24.1791V21.2299C84.1996 21.4717 84.5869 21.6713 85.0139 21.8302C85.4924 22.0078 86.0014 22.0957 86.5392 22.0957C87.4515 22.0957 88.2792 21.8598 89.0132 21.3847H89.0148C89.7547 20.8993 90.3372 20.2415 90.7625 19.418C91.2047 18.5742 91.4203 17.612 91.4203 16.5398C91.4203 15.4677 91.2047 14.5114 90.7625 13.6803L90.76 13.6786ZM88.2606 18.0043V18.006L88.259 18.0077C88.0586 18.4313 87.7787 18.7576 87.4194 18.9969L87.4177 18.9986L87.416 19.0003C87.0795 19.232 86.6728 19.3537 86.1807 19.3537C85.6886 19.3537 85.2743 19.232 84.9225 18.9978C84.5632 18.7585 84.2766 18.4304 84.0635 18.006C83.8623 17.568 83.7591 17.0801 83.7591 16.5381C83.7591 15.9962 83.8631 15.5015 84.0618 15.0923C84.2749 14.6662 84.5624 14.3381 84.9225 14.098C85.2743 13.8638 85.6886 13.742 86.1807 13.742C86.6728 13.742 87.0786 13.8638 87.416 14.0954L87.4177 14.0971L87.4194 14.0988C87.7779 14.3381 88.0577 14.6645 88.259 15.0881L88.2615 15.0932L88.264 15.0982C88.4737 15.5066 88.5836 15.9843 88.5836 16.539C88.5836 17.0937 88.4746 17.5671 88.2615 18.0051L88.2606 18.0043Z" fill="#4E4E4E"/>
<path fill-rule="evenodd" clip-rule="evenodd" d="M101.564 13.6837C101.085 12.8458 100.429 12.1896 99.6017 11.7212C98.7833 11.2393 97.8667 11 96.8614 11C95.8561 11 94.9319 11.2393 94.1016 11.7212C93.2857 12.1896 92.6313 12.8458 92.14 13.682V13.6837C91.6547 14.5182 91.418 15.4795 91.418 16.5567C91.418 17.6339 91.6547 18.6004 92.1383 19.4459L92.14 19.4484L92.1417 19.4509C92.6338 20.2753 93.2883 20.9238 94.1033 21.3914L94.105 21.3923C94.9353 21.8607 95.8561 22.0932 96.8614 22.0932C97.8667 22.0932 98.7816 21.8615 99.6 21.3923C100.428 20.9247 101.084 20.2745 101.564 19.4484C102.061 18.602 102.305 17.6348 102.305 16.5559C102.305 15.477 102.061 14.5174 101.564 13.6837ZM99.0242 18.0474L99.0226 18.0491C98.8002 18.46 98.4983 18.7779 98.1136 19.0087H98.1119L98.1102 19.0113C97.7407 19.2396 97.3273 19.3554 96.8614 19.3554C96.3955 19.3554 95.9753 19.2404 95.5923 19.0104C95.2203 18.7804 94.9167 18.4625 94.6808 18.0482C94.4618 17.6297 94.3468 17.1368 94.3468 16.5584C94.3468 15.9801 94.4627 15.4728 94.6808 15.0686C94.9176 14.6408 95.222 14.317 95.5923 14.0878C95.9753 13.8587 96.3964 13.7429 96.8614 13.7429C97.3264 13.7429 97.7407 13.8587 98.1102 14.087H98.1119L98.1136 14.0895C98.4958 14.3187 98.7976 14.6408 99.0209 15.0644L99.0234 15.0695L99.0259 15.0737C99.2542 15.4762 99.376 15.9674 99.376 16.5584C99.376 17.1494 99.2551 17.6289 99.0242 18.0474Z" fill="#4E4E4E"/>
<path fill-rule="evenodd" clip-rule="evenodd" d="M121.685 13.3869C121.492 12.675 121.124 12.0933 120.576 11.657C120.016 11.2012 119.227 11.0009 118.262 11.0009C117.802 11.0009 117.368 11.0753 116.965 11.2275C116.573 11.3627 116.219 11.5471 115.903 11.7804C115.727 11.9098 115.564 12.0468 115.413 12.1913C115.346 11.9817 115.232 11.7923 115.07 11.6291C114.79 11.3348 114.431 11.1886 114.02 11.1886C113.608 11.1886 113.25 11.3348 112.97 11.6291C112.691 11.9098 112.555 12.2666 112.555 12.6716V16.3132C112.555 15.5929 112.415 14.9097 112.134 14.2654C111.869 13.6287 111.502 13.069 111.035 12.5879C110.568 12.095 110.026 11.7069 109.412 11.4261C108.804 11.1421 108.154 11.0009 107.469 11.0009C106.582 11.0009 105.741 11.23 104.953 11.684C104.159 12.1415 103.517 12.7993 103.027 13.6473V13.649C102.541 14.4996 102.307 15.5176 102.307 16.6887C102.307 17.7024 102.524 18.6215 102.967 19.44V19.4417L102.969 19.4433C103.424 20.261 104.07 20.912 104.896 21.3923L104.899 21.394L104.902 21.3956C105.749 21.8658 106.733 22.0949 107.844 22.0949C108.507 22.0949 109.15 21.9892 109.773 21.777H109.777L109.78 21.7744C110.387 21.5546 110.883 21.295 111.249 20.9864C111.65 20.6702 111.899 20.2753 111.899 19.8044C111.899 19.4603 111.767 19.1584 111.523 18.9124C111.279 18.6536 110.963 18.5277 110.604 18.5277C110.339 18.5277 110.074 18.6021 109.814 18.7323L109.809 18.7348L109.804 18.7373C109.658 18.8168 109.495 18.9149 109.317 19.0299C109.192 19.106 109.007 19.1829 108.75 19.2531C108.516 19.3174 108.181 19.3537 107.731 19.3537C107.282 19.3537 106.869 19.2497 106.467 19.0392C106.085 18.8202 105.765 18.5065 105.506 18.0914C105.43 17.9595 105.366 17.8174 105.313 17.6652H111.073C111.45 17.6652 111.79 17.5452 112.078 17.305C112.379 17.0548 112.54 16.7199 112.556 16.3276V16.3208V20.425C112.556 20.8317 112.692 21.1919 112.968 21.4836L112.971 21.487L112.975 21.4903C113.256 21.7719 113.614 21.9089 114.02 21.9089C114.427 21.9089 114.786 21.7727 115.067 21.4903L115.071 21.487L115.074 21.4836C115.349 21.1919 115.485 20.8325 115.485 20.425V15.6199C115.485 15.2572 115.562 14.9452 115.706 14.6755C115.864 14.3922 116.083 14.1673 116.368 13.9982C116.657 13.8342 117.02 13.7437 117.474 13.7437C117.928 13.7437 118.263 13.8376 118.459 13.9796C118.671 14.1343 118.816 14.3398 118.896 14.6095L118.898 14.6171L118.901 14.6247C118.999 14.908 119.051 15.2394 119.051 15.6216V20.4267C119.051 20.8334 119.187 21.1936 119.462 21.4853L119.466 21.4886L119.469 21.492C119.751 21.7736 120.108 21.9106 120.516 21.9106C120.923 21.9106 121.28 21.7744 121.562 21.492L121.565 21.4886L121.568 21.4853C121.844 21.1936 121.98 20.8342 121.98 20.4267V15.6216C121.98 14.8082 121.883 14.0633 121.686 13.3894L121.685 13.3869ZM105.335 15.1118C105.46 14.7558 105.622 14.4903 105.812 14.3001C106.01 14.1022 106.244 13.9619 106.517 13.8773C106.807 13.7885 107.124 13.742 107.469 13.742C107.815 13.742 108.114 13.8173 108.403 13.9669L108.41 13.9703L108.416 13.9737C108.721 14.1149 108.965 14.3077 109.156 14.5512L109.159 14.5546L109.161 14.5579C109.302 14.7287 109.395 14.9122 109.444 15.1118H105.335Z" fill="#4E4E4E"/>
</g>
<defs>
<clipPath id="clip0_1_2">
<rect width="122" height="32" fill="white"/>
</clipPath>
</defs>
</svg>
