<svg width="85" height="85" viewBox="0 0 85 85" fill="none" xmlns="http://www.w3.org/2000/svg">
<path d="M42.0221 84.0443C65.2303 84.0443 84.0443 65.2303 84.0443 42.0221C84.0443 18.814 65.2303 0 42.0221 0C18.814 0 0 18.814 0 42.0221C0 65.2303 18.814 84.0443 42.0221 84.0443Z" fill="url(#paint0_linear_825_12334)"/>
<path d="M35.8365 26.2373H52.4747C54.9491 26.2373 56.9542 28.2424 56.9542 30.7168C56.9542 33.1912 54.9491 35.1963 52.4747 35.1963H35.8365C33.3621 35.1963 31.3569 33.1912 31.3569 30.7168C31.3569 28.2424 33.3621 26.2373 35.8365 26.2373Z" fill="#FDFDFD"/>
<path d="M35.8365 49.7015H52.4747C54.9491 49.7015 56.9542 51.7066 56.9542 54.181C56.9542 56.6554 54.9491 58.6605 52.4747 58.6605H35.8365C33.3621 58.6605 31.3569 56.6554 31.3569 54.181C31.3569 51.7066 33.3621 49.7015 35.8365 49.7015Z" fill="#FDFDFD"/>
<path d="M27.5166 37.9694H44.1548C46.6292 37.9694 48.6343 39.9745 48.6343 42.4489C48.6343 44.9233 46.6292 46.9284 44.1548 46.9284H27.5166C25.0422 46.9284 23.0371 44.9233 23.0371 42.4489C23.0371 39.9745 25.0422 37.9694 27.5166 37.9694Z" fill="#FDFDFD"/>
<path d="M44.1551 23.4642C46.629 23.4642 48.6346 21.4586 48.6346 18.9847C48.6346 16.5107 46.629 14.5052 44.1551 14.5052C41.6811 14.5052 39.6755 16.5107 39.6755 18.9847C39.6755 21.4586 41.6811 23.4642 44.1551 23.4642Z" fill="white"/>
<path d="M44.1551 69.5392C46.629 69.5392 48.6346 67.5336 48.6346 65.0597C48.6346 62.5857 46.629 60.5801 44.1551 60.5801C41.6811 60.5801 39.6755 62.5857 39.6755 65.0597C39.6755 67.5336 41.6811 69.5392 44.1551 69.5392Z" fill="white"/>
<defs>
<linearGradient id="paint0_linear_825_12334" x1="42.0221" y1="0" x2="42.0221" y2="84.0443" gradientUnits="userSpaceOnUse">
<stop stop-color="#265ED4"/>
<stop offset="1" stop-color="#33C1EA"/>
</linearGradient>
</defs>
</svg>
